<svg width="64" height="64" viewBox="0 0 64 64" fill="none" xmlns="http://www.w3.org/2000/svg">
<path d="M22.5 2.5H2.5V22.5M61.5 22.5V2.5L41.5 2.5M2.5 41.5L2.5 61.5H22.5M41.5 61.5H61.5L61.5 41.5" stroke="#059669" stroke-width="2.44706"/>
<path d="M24.5487 24.5489V24.5696M40.0331 39.001V39.0217M31.7747 31.775V31.7956M29.7102 42.0979V42.1185M21.4518 35.9042V35.9248M31.7747 11.1292C27.6914 11.1292 23.6997 12.34 20.3045 14.6086C16.9093 16.8772 14.2631 20.1016 12.7005 23.8742C11.1379 27.6467 10.729 31.7979 11.5256 35.8028C12.3222 39.8077 14.2886 43.4864 17.1759 46.3738C20.0633 49.2612 23.742 51.2275 27.7469 52.0241C31.7518 52.8207 35.903 52.4119 39.6756 50.8492C43.4481 49.2866 46.6725 46.6404 48.9411 43.2452C51.2097 39.85 52.4206 35.8583 52.4206 31.775C50.9857 32.2168 49.4576 32.2591 48.0004 31.8974C46.5433 31.5356 45.2124 30.7835 44.1508 29.7219C43.0892 28.6602 42.337 27.3293 41.9753 25.8722C41.6135 24.4151 41.6558 22.8869 42.0977 21.4521C40.6628 21.8939 39.1346 21.9362 37.6775 21.5744C36.2204 21.2127 34.8895 20.4606 33.8279 19.3989C32.7663 18.3373 32.0141 17.0064 31.6524 15.5493C31.2906 14.0922 31.3329 12.564 31.7747 11.1292Z" stroke="#059669" stroke-width="2.45" stroke-linecap="round" stroke-linejoin="round"/>
</svg>
