<svg width="1280" height="918" viewBox="0 0 1280 918" fill="none" xmlns="http://www.w3.org/2000/svg">
<g opacity="0.3">
<rect x="1.28945" y="47.1" width="1277.61" height="865.8" fill="#ECFDF5" stroke="#34D399" stroke-width="2.2"/>
<path d="M638.316 800.1C674.603 800.1 709.372 812.14 734.98 833.527C760.272 854.649 774.565 883.159 774.909 912.9H501.724C502.068 883.159 516.361 854.649 541.652 833.527C567.261 812.14 602.03 800.1 638.316 800.1Z" fill="#ECFDF5" stroke="#34D399" stroke-width="2.2"/>
<path d="M639.081 906.3C642.274 906.3 644.855 908.856 644.855 912C644.855 915.144 642.274 917.7 639.081 917.7C635.888 917.7 633.306 915.145 633.306 912C633.306 908.855 635.888 906.3 639.081 906.3Z" fill="#34D399" stroke="#34D399" stroke-width="0.6"/>
<rect x="272.118" y="47.1" width="733.893" height="308.8" fill="#ECFDF5" stroke="#34D399" stroke-width="2.2"/>
<rect x="476.118" y="47.1" width="325.853" height="103.8" fill="#ECFDF5" stroke="#34D399" stroke-width="2.2"/>
<rect x="565.118" y="1.1" width="148.664" height="45.8" fill="#ECFDF5" stroke="#34D399" stroke-width="2.2"/>
<path d="M52.8711 47.0996C52.7296 53.4035 51.3727 59.6314 48.8643 65.4648C46.21 71.6374 42.319 77.2491 37.4102 81.9775C32.5012 86.7061 26.6711 90.4593 20.252 93.0205C14.1715 95.4466 7.67621 96.7561 1.10059 96.8877V47.0996H52.8711Z" fill="#ECFDF5" stroke="#34D399" stroke-width="2.2"/>
<path d="M1278.39 47.4161V98.5196C1272 98.3814 1265.68 97.0405 1259.77 94.5596C1253.52 91.9367 1247.83 88.0921 1243.05 83.2442C1238.26 78.3962 1234.46 72.6398 1231.87 66.3038C1229.41 60.3064 1228.09 53.9005 1227.95 47.4161H1278.39Z" fill="#ECFDF5" stroke="#34D399" stroke-width="2.2"/>
<mask id="path-9-inside-1_1828_3061" fill="white">
<path d="M776.42 355C776.42 385.5 761.912 414.751 736.088 436.317C710.264 457.884 675.239 470 638.719 470C602.198 470 567.173 457.884 541.349 436.317C515.525 414.751 501.018 385.5 501.018 355L638.719 355H776.42Z"/>
</mask>
<path d="M776.42 355C776.42 385.5 761.912 414.751 736.088 436.317C710.264 457.884 675.239 470 638.719 470C602.198 470 567.173 457.884 541.349 436.317C515.525 414.751 501.018 385.5 501.018 355L638.719 355H776.42Z" fill="#ECFDF5" stroke="#34D399" stroke-width="4.4" mask="url(#path-9-inside-1_1828_3061)"/>
<path d="M639.585 230.3C642.778 230.3 645.359 232.856 645.359 236C645.359 239.144 642.778 241.7 639.585 241.7C636.392 241.7 633.81 239.145 633.81 236C633.81 232.855 636.392 230.3 639.585 230.3Z" fill="#34D399" stroke="#34D399" stroke-width="0.6"/>
<path d="M297.016 707.978V556H364.362C397.601 556 419.326 576.762 419.326 607.49C419.326 640.086 397.601 660.018 364.362 660.018H332.862V707.978H297.016ZM361.973 628.459C375.442 628.459 383.48 620.57 383.48 608.113C383.48 595.863 375.442 588.389 361.973 588.389H332.862V628.459H361.973Z" fill="#A7F3D0"/>
<path d="M439.593 707.978V556H475.439V675.589H547.782V707.978H439.593Z" fill="#A7F3D0"/>
<path d="M577.024 707.978V648.599H555.951L524.668 556H563.772L593.752 648.599H595.925L625.905 556H665.01L633.726 648.599H612.653V707.978H577.024Z" fill="#A7F3D0"/>
<path d="M652.036 707.978L692.661 556H763.484L804.109 707.978H766.091L759.356 680.987H696.789L690.054 707.978H652.036ZM704.827 649.014H751.318L729.376 562.229H726.769L704.827 649.014Z" fill="#A7F3D0"/>
<path d="M812.618 707.978V680.572L881.703 588.389H810.445V556H927.976V583.406L859.109 675.589H933.19V707.978H812.618Z" fill="#A7F3D0"/>
<circle cx="964.395" cy="689.597" r="18.1307" fill="#A7F3D0"/>
</g>
</svg>
