<svg width="28" height="28" viewBox="0 0 28 28" fill="none" xmlns="http://www.w3.org/2000/svg">
<path d="M28.0029 27.3009C28.0029 27.687 27.6899 28 27.3038 28H0.702065C0.315943 28 0.00292969 27.687 0.00292969 27.3009V0.699135C0.00292969 0.313013 0.315943 0 0.702065 0H27.3038C27.6899 0 28.0029 0.313014 28.0029 0.699135V27.3009ZM19.7109 15.7725C17.5341 15.7726 15.7695 17.537 15.7695 19.7139C15.7699 21.8904 17.5343 23.6551 19.7109 23.6553C21.8877 23.6553 23.653 21.8905 23.6533 19.7139C23.6533 17.5369 21.8879 15.7725 19.7109 15.7725ZM5.08097 4.38184C4.69485 4.38184 4.38184 4.69485 4.38184 5.08097V20.3253C4.38184 20.7114 4.69485 21.0244 5.08097 21.0244H10.2227C10.6089 21.0244 10.9219 20.7114 10.9219 20.3253V11.622C10.9219 11.2359 11.2349 10.9229 11.621 10.9229H20.3253C20.7114 10.9229 21.0244 10.6098 21.0244 10.2237V5.08097C21.0244 4.69485 20.7114 4.38184 20.3253 4.38184H5.08097Z" fill="#262626"/>
</svg>
