<svg width="64" height="64" viewBox="0 0 64 64" fill="none" xmlns="http://www.w3.org/2000/svg">
<path d="M22.5 2.5H2.5V22.5M61.5 22.5V2.5L41.5 2.5M2.5 41.5L2.5 61.5H22.5M41.5 61.5H61.5L61.5 41.5" stroke="#059669" stroke-width="2.44706"/>
<path d="M20.1642 46.0422C21.0452 43.6724 22.6302 41.629 24.7063 40.1862C26.7825 38.7435 29.2504 37.9706 31.7786 37.9713C34.3068 37.9719 36.7743 38.7462 38.8497 40.19C40.9251 41.6339 42.509 43.6782 43.3887 46.0484M48.2921 33.8405C48.2921 44.1634 41.0661 49.3249 32.4774 52.3185C32.0277 52.4709 31.5391 52.4636 31.0941 52.2979C22.4848 49.3249 15.2588 44.1634 15.2588 33.8405V19.3884C15.2588 18.8409 15.4763 18.3157 15.8635 17.9285C16.2507 17.5413 16.7758 17.3238 17.3234 17.3238C21.4525 17.3238 26.614 14.8463 30.2064 11.7082C30.6438 11.3345 31.2002 11.1292 31.7755 11.1292C32.3507 11.1292 32.9071 11.3345 33.3445 11.7082C36.9576 14.867 42.0984 17.3238 46.2275 17.3238C46.7751 17.3238 47.3002 17.5413 47.6874 17.9285C48.0746 18.3157 48.2921 18.8409 48.2921 19.3884V33.8405ZM40.0338 29.7114C40.0338 34.2724 36.3364 37.9697 31.7755 37.9697C27.2145 37.9697 23.5171 34.2724 23.5171 29.7114C23.5171 25.1505 27.2145 21.4531 31.7755 21.4531C36.3364 21.4531 40.0338 25.1505 40.0338 29.7114Z" stroke="#059669" stroke-width="2.45" stroke-linecap="round" stroke-linejoin="round"/>
</svg>
