<svg width="84" height="81" viewBox="0 0 84 81" fill="none" xmlns="http://www.w3.org/2000/svg">
<path d="M16.2684 43.1061L3.59747 40.1594C3.23821 40.0742 2.90003 39.9172 2.60342 39.698C2.30682 39.4787 2.05795 39.2018 1.87186 38.8839C1.68578 38.5661 1.56635 38.2139 1.52082 37.8488C1.47529 37.4836 1.50461 37.113 1.60698 36.7595L8.6249 13.1864C8.79376 12.5384 9.1994 11.9766 9.76233 11.6111L28.2796 2.12512C28.728 1.86584 29.2401 1.73634 29.7583 1.75114H54.2243C54.7495 1.75429 55.2628 1.90772 55.703 2.19315L74.2317 11.6791C74.7916 12.0477 75.1963 12.6082 75.3691 13.2544L82.387 36.8275C82.4893 37.1818 82.5181 37.5531 82.4719 37.9189C82.4256 38.2847 82.3052 38.6373 82.118 38.9553C81.9308 39.2733 81.6806 39.55 81.3827 39.7687C81.0848 39.9874 80.7454 40.1435 80.3851 40.2274L67.6574 43.174" fill="#059669"/>
<path d="M16.2684 43.1061L3.59747 40.1594C3.23821 40.0742 2.90003 39.9172 2.60342 39.698C2.30682 39.4787 2.05795 39.2018 1.87186 38.8839C1.68578 38.5661 1.56635 38.2139 1.52082 37.8488C1.47529 37.4836 1.50461 37.113 1.60698 36.7595L8.6249 13.1864C8.79376 12.5384 9.1994 11.9766 9.76233 11.6111L28.2796 2.12512C28.728 1.86584 29.2401 1.73634 29.7583 1.75114H54.2243C54.7495 1.75429 55.2628 1.90772 55.703 2.19315L74.2317 11.6791C74.7916 12.0477 75.1963 12.6082 75.3691 13.2544L82.387 36.8275C82.4893 37.1818 82.5181 37.5531 82.4719 37.9189C82.4256 38.2847 82.3052 38.6373 82.118 38.9553C81.9308 39.2733 81.6806 39.55 81.3827 39.7687C81.0848 39.9874 80.7454 40.1435 80.3851 40.2274L67.6574 43.174" stroke="#059669" stroke-width="2.57179" stroke-miterlimit="10"/>
<path d="M16.3389 34.6535V68.7589C16.3351 71.0777 16.1804 75.5856 16.3389 75.8815C16.4975 76.1775 21.4024 78.0878 25.0912 78.6676C29.5919 79.375 35.9247 79.349 41.4857 79.375H42.4508C48.0142 79.3223 55.4399 79.375 59.2081 78.6676C62.9763 77.9602 67.2299 76.1775 67.5258 75.8815C67.8218 75.5856 67.6592 70.9964 67.6552 68.6795V34.6535" fill="#059669"/>
<path d="M16.3389 34.6535V68.7589C16.3351 71.0777 16.1804 75.5856 16.3389 75.8815C16.4975 76.1775 21.4024 78.0878 25.0912 78.6676C29.5919 79.375 35.9247 79.349 41.4857 79.375H42.4508C48.0142 79.3223 55.4399 79.375 59.2081 78.6676C62.9763 77.9602 67.2299 76.1775 67.5258 75.8815C67.8218 75.5856 67.6592 70.9964 67.6552 68.6795V34.6535" stroke="#059669" stroke-width="2.57179" stroke-miterlimit="10" stroke-linecap="round"/>
<path d="M52.6054 1.75C52.6515 3.16732 52.4139 4.57952 51.9067 5.90258C51.3995 7.22564 50.6331 8.43256 49.6531 9.45156C48.6731 10.4706 47.4994 11.2809 46.202 11.8342C44.9045 12.3876 43.5096 12.6728 42.1004 12.6728C40.6912 12.6728 39.2964 12.3876 37.9989 11.8342C36.7014 11.2809 35.5278 10.4706 34.5477 9.45156C33.5677 8.43256 32.8013 7.22564 32.2941 5.90258C31.787 4.57952 31.5494 3.16732 31.5955 1.75" fill="#059669"/>
<path d="M52.6054 1.75C52.6515 3.16732 52.4139 4.57952 51.9067 5.90258C51.3995 7.22564 50.6331 8.43256 49.6531 9.45156C48.6731 10.4706 47.4994 11.2809 46.202 11.8342C44.9045 12.3876 43.5096 12.6728 42.1004 12.6728C40.6912 12.6728 39.2964 12.3876 37.9989 11.8342C36.7014 11.2809 35.5278 10.4706 34.5477 9.45156C33.5677 8.43256 32.8013 7.22564 32.2941 5.90258C31.787 4.57952 31.5494 3.16732 31.5955 1.75" stroke="#059669" stroke-width="2.57179" stroke-miterlimit="10"/>
<g clip-path="url(#clip0_2616_4305)">
<path d="M36.8868 19.2933H26.1299V30.0502M57.8628 30.0502V19.2933L47.1059 19.2933M26.1299 40.2693L26.1299 51.0262H36.8868M47.1059 51.0262H57.8628L57.8628 40.2693" stroke="#FAFAFA" stroke-width="2.00796"/>
</g>
<defs>
<clipPath id="clip0_2616_4305">
<rect width="34.4221" height="34.4221" fill="white" transform="translate(24.7852 17.9487)"/>
</clipPath>
</defs>
</svg>
